# xmcd
# 
# Track frame offsets:
#   150
#   16667
#   30605
#   41837
#   54977
#   70050
#   82992
#   98700
#   116017
#   128860
# 
# Disc length: 1860 seconds
# 
# Revision: 1
# Processed by: cddbd v1.4PL0 Copyright (c) Steve Scherf et al.
# Submitted via: VOLTOCDX V1.0.22 
# 
DISCID=7607420a
DTITLE=David Allan Coe - Long Haired Country Boy (and Other Such Songs)
DYEAR=2000
DGENRE=country
TTITLE0=Long Haired Country Boy
TTITLE1=He Stopped Loving Her Today
TTITLE2=Train Of Love
TTITLE3=Four Walls
TTITLE4=Prisoner's Song
TTITLE5=Me And Bobby McGee
TTITLE6=Waitin For A Train
TTITLE7=Folsom Prison Blues
TTITLE8=My Son Calls Another Man Daddy
TTITLE9=Ring On The Bar
EXTD=
EXTT0=
EXTT1=
EXTT2=
EXTT3=
EXTT4=
EXTT5=
EXTT6=
EXTT7=
EXTT8=
EXTT9=
PLAYORDER=
